<svg width="17" height="20" viewBox="0 0 17 20" fill="none" xmlns="http://www.w3.org/2000/svg">
<path d="M16.0556 19.1C15.5556 19.7 14.2556 19.4 13.2556 18.6C12.3556 17.8 11.9556 16.9 12.1556 16.3L2.05556 0.9C1.95556 0.7 1.95556 0.3 2.35556 0.1C2.45556 3.7998e-07 2.55556 0 2.65556 0C2.85556 0 3.05556 0.1 3.15556 0.2L13.1556 15.6C13.7556 15.6 14.5556 15.9 15.1556 16.5C16.1556 17.3 16.5556 18.5 16.0556 19.1Z" fill="#1FA539"/>
<path d="M14.0556 19.1C13.5556 19.7 12.2556 19.4 11.2556 18.6C10.3556 17.8 9.95556 16.9 10.1556 16.3L0.0555556 0.9C-0.0444444 0.6 -0.0444447 0.3 0.355555 0.0999999C0.455555 -9.68575e-08 0.555556 0 0.655556 0C0.855556 0 1.05556 0.0999998 1.15556 0.2L11.1556 15.6C11.7556 15.6 12.5556 15.9 13.1556 16.5C14.1556 17.3 14.5556 18.5 14.0556 19.1Z" fill="white"/>
</svg>
