<svg width="433" height="618" viewBox="0 0 433 618" fill="none" xmlns="http://www.w3.org/2000/svg">
<path d="M198.385 276.937C198.385 276.937 233.63 183.677 377.211 60.11C419.023 23.0007 432.018 12.25 432.018 12.25C432.018 12.25 432.841 -0.291614 420.669 0.00518599C401.404 15.0159 361.013 45.4012 361.013 45.4012C361.013 45.4012 316.586 85.3492 283.81 120.516C251.024 155.688 200.326 207.057 170.384 276.943" fill="#2E7D4E"/>
<path d="M353.545 46.7408L322.258 78.0275C321.065 79.2202 319.123 79.2202 317.852 78.0275L316.133 76.3087C314.94 75.1159 314.94 73.1732 316.133 71.9024L347.42 40.6157C348.612 39.423 350.555 39.423 351.826 40.6157L353.545 42.3345C354.743 43.6053 354.743 45.5481 353.545 46.7408Z" fill="#2E7D4E"/>
<path d="M45.6247 289.403C45.6247 289.403 146.125 298.664 208.398 294.633C208.174 286.044 205.56 282.237 195.778 282.237C186.07 282.237 77.205 278.58 57.1916 276.862C43.7596 275.888 45.6247 289.403 45.6247 289.403Z" fill="#2E7D4E"/>
<path d="M213.025 299.63H131.937C90.1247 299.63 42.7861 293.656 42.7861 293.656C29.7965 297.088 24.5674 321.208 24.5674 321.208C24.5674 321.208 35.9163 320.015 38.3074 324.791C40.698 329.572 34.5 355.703 34.5 355.703C34.5 355.703 28.0782 359.51 119.099 360.932C150.235 361.453 172.26 361.083 188.239 360.333L185.843 346.224C185.843 346.224 181.062 328.901 195.551 326.287C210.035 323.672 214.592 339.803 214.592 339.803L218.176 357.871C225.79 356.824 229.676 355.782 233.108 355.256C233.858 309.116 213.025 299.63 213.025 299.63Z" fill="#2E7D4E"/>
<path d="M32.5581 363.323C32.5581 363.323 144.709 370.938 187.491 366.162C196.08 394.235 206.533 476.443 194.137 525.348C179.877 574.327 160.388 582.843 160.388 582.843C160.388 582.843 102.372 589.489 80.044 584.708C57.7213 579.926 34.4973 549.093 24.492 520.568C14.4868 492.125 6.424 431.193 32.5597 363.328L32.5581 363.323Z" fill="#2E7D4E"/>
<path d="M208.398 563.43C208.398 563.43 246.403 529.681 247.819 479.279C249.236 428.878 241.694 375.118 237.366 365.191C236.32 362.728 235.502 363.327 235.502 363.327C235.502 363.327 226.913 365.191 220.267 365.941C222.658 374.004 247.45 486.525 208.397 563.435L208.398 563.43Z" fill="#2E7D4E"/>
<path d="M76.4648 592.11C76.4648 592.11 76.3918 592.11 75.7929 591.813C74.5221 591.293 70.7877 589.647 60.3342 584.793C45.0995 577.85 16.5795 549.626 9.33953 524.913C2.0218 500.199 -0.816739 461.891 1.12593 425.454C2.99046 389.017 15.9859 347.203 19.7926 337.35C23.5999 327.496 24.8707 326.6 29.277 327.418C33.6833 328.313 30.5478 336.079 30.5478 336.079L23.2301 365.871C23.2301 365.871 1.35542 436.21 13.0738 500.871C25.7665 565.532 67.8805 584.871 67.8805 584.871C67.8805 584.871 75.495 589.277 79.3024 592.189" fill="#2E7D4E"/>
<path d="M183.985 579.497C183.985 579.497 211.761 561.877 219.599 508.71C227.438 455.47 219.974 389.617 214.896 372.523C209.818 355.425 206.98 336.606 206.98 336.606C206.98 336.606 203.396 330.184 197.271 332.127C191.146 334.069 192.266 341.835 192.266 341.835C192.266 341.835 205.334 405.975 205.782 429.794C206.23 453.539 209.438 497.07 203.47 515.81C197.496 534.55 193.24 557.174 172.262 577.856C162.777 585.919 159.418 584.205 158.45 587.487C163.825 588.231 176.668 584.351 176.668 584.351L183.985 579.497Z" fill="#2E7D4E"/>
<path d="M53.3181 583.817C53.3181 583.817 47.2712 597.254 57.5733 605.396C67.8754 613.458 87.8133 618.536 114.469 617.713C141.053 616.89 165.167 611.364 165.167 611.364C165.167 611.364 174.5 609.646 183.833 603.75C193.167 597.849 188.615 582.021 188.615 582.021C188.615 582.021 183.536 595.01 148.369 597.849C113.202 600.687 113.5 601.359 91.1758 597.849C68.8478 594.349 53.3158 583.818 53.3158 583.818L53.3181 583.817Z" fill="#2E7D4E"/>
</svg>
