<svg width="16" height="15" viewBox="0 0 16 15" fill="none" xmlns="http://www.w3.org/2000/svg">
<path d="M8.84092 1.4999C10.5409 1.4999 12.1409 1.4999 13.8409 1.4999C14.3409 1.4999 14.4409 1.5999 14.5409 2.0999C14.7409 3.0999 15.0409 6.2999 15.3409 7.1999C16.1409 9.4999 15.4409 11.3999 13.7409 12.8999C10.9409 15.3999 6.04092 15.1999 3.44092 12.3999C2.14092 10.9999 1.64092 9.3999 2.24092 7.4999C2.54092 6.3999 2.84092 2.9999 3.14092 1.8999C3.24092 1.4999 3.44092 1.3999 3.74092 1.3999C5.44092 1.4999 7.14092 1.4999 8.84092 1.4999Z" fill="#1FA539"/>
<path d="M11.9409 0.8C11.8409 0.3 11.5409 0.1 11.2409 0H2.54087C2.04087 0.1 1.84087 0.3 1.64087 1C1.14087 2.8 0.740867 4.7 0.240867 6.5C-0.259133 8.1 0.0408671 9.5 0.940867 10.8C3.24087 14.3 8.84087 14.8 11.8409 11.8C13.2409 10.5 13.9409 8.9 13.5409 7C13.0409 4.9 12.4409 2.9 11.9409 0.8ZM2.14087 2.2C2.34087 0.9 2.34087 0.900001 3.64087 0.900001C5.84087 0.900001 7.94087 0.900001 10.1409 0.900001C10.7409 0.900001 10.8409 1 11.0409 1.6C11.1409 1.9 11.1409 2.1 11.2409 2.4C8.24087 2.4 5.24087 2.4 2.14087 2.2ZM10.9409 11.2C8.54087 13.3 4.34087 13.2 2.14087 10.8C0.940867 9.6 0.540867 8.2 1.04087 6.6C1.34087 5.7 1.64087 4.8 1.84087 3.8C1.84087 3.5 2.04087 3.4 2.34087 3.4C3.84087 3.4 5.24087 3.4 6.74087 3.4C8.14087 3.4 9.64087 3.4 11.0409 3.3C11.4409 3.3 11.5409 3.4 11.6409 3.8C11.8409 4.7 12.0409 5.5 12.3409 6.3C12.9409 8.2 12.4409 9.9 10.9409 11.2Z" fill="white"/>
</svg>
