<svg width="82" height="64" viewBox="0 0 82 64" fill="none" xmlns="http://www.w3.org/2000/svg">
<path d="M75.7699 7.08988C67.4799 -1.19012 53.9899 -1.19012 45.6999 7.08988L42.4099 10.3799C41.6599 11.1299 40.3299 11.1399 39.5799 10.3799L36.2899 7.08988C32.1499 2.94988 26.6999 0.879883 21.2599 0.879883C15.8099 0.879883 10.3699 2.94988 6.21994 7.08988C-2.07006 15.3899 -2.07006 28.8699 6.21994 37.1599L25.9599 56.8999C34.2499 65.1899 47.7399 65.1899 56.0299 56.8999L75.7699 37.1599C84.0699 28.8699 84.0699 15.3799 75.7699 7.08988ZM29.5899 28.2399C29.5899 27.8443 29.7072 27.4576 29.927 27.1287C30.1468 26.7998 30.4591 26.5435 30.8246 26.3921C31.19 26.2408 31.5922 26.2011 31.9801 26.2783C32.3681 26.3555 32.7245 26.546 33.0042 26.8257C33.2839 27.1054 33.4743 27.4617 33.5515 27.8497C33.6287 28.2377 33.5891 28.6398 33.4377 29.0053C33.2863 29.3707 33.03 29.6831 32.7011 29.9028C32.3722 30.1226 31.9855 30.2399 31.5899 30.2399C30.4999 30.2399 29.5899 29.3399 29.5899 28.2399ZM49.0799 42.5799C48.8947 42.7667 48.6742 42.9149 48.4314 43.0161C48.1885 43.1173 47.928 43.1694 47.6649 43.1694C47.4019 43.1694 47.1414 43.1173 46.8985 43.0161C46.6556 42.9149 46.4352 42.7667 46.2499 42.5799C45.6854 42.0149 45.038 41.5394 44.3299 41.1699C43.1764 40.564 41.8929 40.2474 40.5899 40.2474C39.287 40.2474 38.0035 40.564 36.8499 41.1699C36.1599 41.5299 35.5099 41.9999 34.9399 42.5799C34.1599 43.3599 32.8899 43.3599 32.1099 42.5799C31.3299 41.7999 31.3299 40.5399 32.1099 39.7499C36.7899 35.0799 44.3999 35.0699 49.0799 39.7499C49.8599 40.5399 49.8599 41.7999 49.0799 42.5799ZM49.5899 30.2399C48.4899 30.2399 47.5899 29.3399 47.5899 28.2399C47.5899 27.1399 48.4899 26.2399 49.5899 26.2399C50.1204 26.2399 50.6291 26.4506 51.0042 26.8257C51.3792 27.2007 51.5899 27.7095 51.5899 28.2399C51.5899 28.7703 51.3792 29.279 51.0042 29.6541C50.6291 30.0292 50.1204 30.2399 49.5899 30.2399Z" fill="#E01E2A"/>
</svg>
