<svg width="67" height="58" viewBox="0 0 67 58" fill="none" xmlns="http://www.w3.org/2000/svg">
<path d="M17.1001 26.331C21.8781 26.331 26.6561 26.331 31.4341 26.331C32.4451 26.331 33.4571 26.351 34.4661 26.307C34.9931 26.284 35.5101 26.378 36.0371 26.341C36.5971 26.301 37.1621 26.332 37.7251 26.332H42.7501C43.4171 26.332 43.3971 26.324 43.6271 25.708C44.1488 24.0641 45.1388 22.6082 46.4759 21.5188C47.8129 20.4294 49.4388 19.7539 51.1541 19.575C53.2792 19.2949 55.4344 19.7824 57.2321 20.9497C59.0297 22.1171 60.3517 23.8877 60.9601 25.943C60.977 26.0639 61.0411 26.1731 61.1384 26.2468C61.2357 26.3204 61.3582 26.3525 61.4791 26.336C63.0031 26.325 64.5271 26.342 66.0511 26.325C66.4381 26.325 66.5871 26.434 66.5801 26.837C66.5595 28.0177 66.5595 29.1983 66.5801 30.379C66.5871 30.788 66.4291 30.891 66.0481 30.887C64.5931 30.871 63.1371 30.896 61.6821 30.873C61.5041 30.8419 61.3209 30.8826 61.1729 30.9863C61.0248 31.0899 60.9238 31.248 60.8921 31.426C60.298 33.2691 59.1303 34.8741 57.5593 36.0064C55.9884 37.1387 54.0965 37.7392 52.1601 37.72C50.2579 37.6983 48.4107 37.0792 46.8798 35.95C45.3488 34.8209 44.2116 33.2389 43.6291 31.428C43.5973 31.2508 43.4973 31.0932 43.3505 30.989C43.2037 30.8849 43.0219 30.8425 42.8441 30.871C28.8668 30.8817 14.8895 30.8847 0.91213 30.88C0.774893 30.8728 0.637365 30.8728 0.500128 30.88C0.151128 30.917 0.0201205 30.797 0.0271205 30.421C0.0511205 29.186 0.0461205 27.95 0.0271205 26.714C0.0271205 26.405 0.103135 26.32 0.417135 26.321C5.9778 26.3324 11.5388 26.3357 17.1001 26.331ZM56.8251 28.615C56.8283 27.4077 56.354 26.2481 55.5055 25.3891C54.6571 24.5302 53.5034 24.0416 52.2961 24.03C51.0844 24.0317 49.9219 24.51 49.0598 25.3615C48.1976 26.2129 47.7049 27.3694 47.6881 28.581C47.6852 29.7893 48.16 30.9498 49.0092 31.8094C49.8583 32.6691 51.0129 33.1581 52.2211 33.17C52.823 33.1754 53.4201 33.0617 53.9778 32.8354C54.5356 32.609 55.0431 32.2746 55.471 31.8513C55.8989 31.428 56.2389 30.9242 56.4713 30.369C56.7037 29.8137 56.824 29.2179 56.8251 28.616V28.615Z" fill="white"/>
<path d="M52.0261 50.3369C47.3861 50.3369 42.7451 50.3429 38.1051 50.3289C37.941 50.3036 37.7734 50.3435 37.6383 50.4401C37.5032 50.5367 37.4113 50.6823 37.3821 50.8459C36.9219 52.3669 36.0596 53.7354 34.8861 54.807C33.7126 55.8785 32.2716 56.6134 30.7151 56.9339C29.2264 57.3037 27.6667 57.2755 26.1923 56.8521C24.7179 56.4288 23.3809 55.6251 22.3151 54.5219C21.2438 53.4893 20.4592 52.196 20.0381 50.7689C20.0265 50.6998 20.0014 50.6336 19.9642 50.5743C19.9269 50.5149 19.8784 50.4634 19.8213 50.4228C19.7641 50.3822 19.6996 50.3533 19.6313 50.3377C19.5629 50.3221 19.4922 50.3201 19.4231 50.3319C15.4145 50.3405 11.4058 50.3422 7.39714 50.3369C5.10514 50.3369 2.81214 50.3299 0.520145 50.3429C0.157145 50.3429 0.0201414 50.2599 0.0261414 49.8629C0.0491414 48.6279 0.040148 47.3919 0.0141479 46.1569C0.00614795 45.7929 0.206135 45.7909 0.454135 45.7909H10.2151C13.2461 45.7909 16.2771 45.7849 19.3081 45.7999C19.4793 45.8276 19.6546 45.7878 19.797 45.689C19.9395 45.5901 20.0381 45.4399 20.0721 45.2699C20.5684 43.6338 21.5283 42.1766 22.8356 41.0748C24.1429 39.973 25.7416 39.2738 27.4381 39.0619C28.7385 38.8492 30.0702 38.9346 31.3327 39.3117C32.5952 39.6888 33.7555 40.3478 34.7261 41.2389C36.0005 42.3384 36.9321 43.781 37.4101 45.3949C37.5231 45.7619 37.7531 45.7949 38.0631 45.7949C40.6718 45.7902 43.2801 45.7902 45.8881 45.7949H65.7401C66.6671 45.7949 66.5711 45.7529 66.5721 46.6069C66.5721 47.6229 66.5721 48.6389 66.5721 49.6549C66.5721 50.3409 66.5721 50.3409 65.9051 50.3409L52.0261 50.3369ZM28.6831 52.6279C29.8966 52.6383 31.0647 52.1666 31.9307 51.3165C32.7968 50.4664 33.29 49.3073 33.3021 48.0939C33.299 46.8878 32.8235 45.7309 31.9777 44.8711C31.1319 44.0112 29.983 43.5169 28.7771 43.4939C27.5701 43.4814 26.4068 43.9451 25.5392 44.7844C24.6716 45.6237 24.1697 46.7711 24.1421 47.9779C24.1315 48.5823 24.241 49.1828 24.4641 49.7446C24.6872 50.3064 25.0195 50.8184 25.4419 51.2509C25.8642 51.6834 26.3682 52.0278 26.9245 52.2641C27.4809 52.5005 28.0787 52.6241 28.6831 52.6279Z" fill="white"/>
<path d="M46.4672 11.3751H28.5922C28.0022 11.3751 27.4112 11.3941 26.8222 11.3691C26.7551 11.3595 26.6867 11.3632 26.6211 11.3801C26.5554 11.397 26.4937 11.4267 26.4395 11.4675C26.3854 11.5083 26.3398 11.5594 26.3054 11.6178C26.271 11.6763 26.2485 11.7409 26.2392 11.8081C25.6782 13.6471 24.5445 15.2587 23.0032 16.4081C21.6852 17.4117 20.1139 18.0287 18.4652 18.1901C16.8452 18.3713 15.2069 18.0959 13.7352 17.3951C12.5868 16.8749 11.5618 16.117 10.7278 15.1716C9.89387 14.2261 9.26994 13.1144 8.8972 11.9101C8.88283 11.8228 8.85123 11.7392 8.80423 11.6642C8.75724 11.5892 8.69579 11.5243 8.62348 11.4733C8.55116 11.4223 8.46943 11.3862 8.38303 11.3671C8.29662 11.348 8.20727 11.3463 8.1202 11.3621C5.5672 11.3811 3.0132 11.3621 0.459201 11.3821C0.0712009 11.3821 0.0171973 11.2651 0.0211973 10.9201C0.035864 9.64409 0.0288679 8.36775 0.000201251 7.09108C-0.00679875 6.78108 0.170205 6.87209 0.313205 6.87209C2.9082 6.87209 5.5032 6.86109 8.0972 6.88509C8.28013 6.91474 8.46738 6.87126 8.61855 6.76405C8.76971 6.65685 8.87268 6.49453 8.9052 6.31209C9.42354 4.6316 10.4281 3.14235 11.7921 2.0323C13.1561 0.922263 14.8185 0.241196 16.5692 0.0750897C18.4963 -0.183077 20.4537 0.228928 22.1132 1.24208C24.0614 2.35957 25.5173 4.16967 26.1912 6.31209C26.2262 6.49657 26.3324 6.6599 26.4867 6.76689C26.641 6.87388 26.8312 6.91596 27.0162 6.88408C39.9215 6.87208 52.8269 6.86908 65.7322 6.87508C65.8554 6.88227 65.979 6.88227 66.1022 6.87508C66.4642 6.83308 66.5822 6.98809 66.5772 7.34609C66.5612 8.55409 66.5612 9.76208 66.5772 10.9701C66.5772 11.2981 66.4772 11.3841 66.1512 11.3831C61.6899 11.3717 57.2285 11.3687 52.7672 11.3741L46.4672 11.3751ZM22.1262 9.14906C22.1202 7.928 21.6326 6.75863 20.7695 5.89491C19.9063 5.0312 18.7373 4.54292 17.5162 4.53609C16.3085 4.55242 15.1559 5.04479 14.3092 5.90614C13.4624 6.7675 12.9899 7.92824 12.9942 9.13609C12.991 9.73773 13.107 10.334 13.3354 10.8906C13.5637 11.4473 13.9 11.9532 14.3249 12.3792C14.7497 12.8052 15.2546 13.143 15.8106 13.3729C16.3666 13.6029 16.9626 13.7205 17.5642 13.7191C18.7708 13.704 19.9236 13.2174 20.7762 12.3634C21.6287 11.5094 22.1132 10.3557 22.1262 9.14906Z" fill="white"/>
</svg>
