<svg width="27" height="26" viewBox="0 0 27 26" fill="none" xmlns="http://www.w3.org/2000/svg">
<path d="M24.9375 24.9H15.6375C14.8375 24.9 14.1375 24.2 14.1375 23.4V4.19995C14.1375 3.39995 14.8375 2.69995 15.6375 2.69995H24.9375C25.7375 2.69995 26.4375 3.39995 26.4375 4.19995V23.4C26.4375 24.2 25.7375 24.9 24.9375 24.9Z" fill="#1FA539"/>
<path d="M22.9375 23.3H13.6375C12.8375 23.3 12.1375 22.6 12.1375 21.8V2.5C12.1375 1.7 12.8375 1 13.6375 1H22.9375C23.7375 1 24.4375 1.7 24.4375 2.5V21.7C24.4375 22.6 23.7375 23.3 22.9375 23.3Z" stroke="white" stroke-width="1.0231" stroke-miterlimit="10"/>
<path d="M6.93759 13.3001L0.637587 3.5001C0.537587 3.2001 0.537587 2.9001 0.937587 2.7001C1.03759 2.6001 1.13759 2.6001 1.23759 2.6001C1.43759 2.6001 1.63759 2.7001 1.73759 2.9001L7.63759 13.2001L6.93759 13.3001Z" fill="#1FA539"/>
<path d="M11.4374 12.6999C13.1374 12.6999 14.7374 12.6999 16.4374 12.6999C16.9374 12.6999 17.0374 12.7999 17.1374 13.2999C17.3374 14.2999 17.6374 17.4999 17.9374 18.3999C18.7374 20.6999 18.0374 22.5999 16.3374 24.0999C13.5374 26.5999 8.63736 26.3999 6.03736 23.5999C4.73736 22.1999 4.23736 20.5999 4.83736 18.6999C5.13736 17.5999 5.43736 14.1999 5.73736 13.0999C5.83736 12.6999 6.03736 12.5999 6.33736 12.5999C8.03736 12.6999 9.73736 12.6999 11.4374 12.6999Z" fill="#1FA539"/>
<path d="M14.5374 12C14.3374 11.5 14.1374 11.3 13.8374 11.2H5.03745C4.53745 11.3 4.33745 11.5 4.13745 12.2C3.63745 14 3.23745 15.9 2.73745 17.7C2.23745 19.3 2.53745 20.7 3.43745 22C5.73745 25.5 11.3374 26 14.3374 23C15.7374 21.7 16.4374 20.1 16.0374 18.2C15.6374 16.1 15.0374 14.1 14.5374 12ZM4.73745 13.4C4.93745 12.1 4.93745 12.1 6.23745 12.1C8.43745 12.1 10.5374 12.1 12.7374 12.1C13.3374 12.1 13.4374 12.2 13.6374 12.8C13.7374 13.1 13.7374 13.3 13.8374 13.6C10.8374 13.6 7.83745 13.6 4.73745 13.4ZM13.5374 22.4C11.1374 24.5 6.93745 24.4 4.73745 22C3.53745 20.8 3.13745 19.4 3.63745 17.8C3.93745 16.9 4.23745 16 4.43745 15C4.43745 14.7 4.63745 14.6 4.93745 14.6C6.43745 14.6 7.83745 14.6 9.33745 14.6C10.7374 14.6 12.2374 14.6 13.6374 14.5C14.0374 14.5 14.1374 14.6 14.2374 15C14.4374 15.9 14.6374 16.7 14.9374 17.5C15.5374 19.4 15.0374 21.1 13.5374 22.4Z" fill="white"/>
<path d="M12.8375 22.4C12.2375 23 11.0375 22.6 10.1375 21.7C9.3375 20.9 8.9375 19.9 9.2375 19.3L0.0375 3.4C-0.0625 3.1 0.0375 2.8 0.3375 2.6C0.4375 2.5 0.5375 2.5 0.6375 2.5C0.8375 2.5 1.0375 2.6 1.1375 2.8L10.1375 18.8C10.7375 18.8 11.4375 19.2 12.1375 19.8C13.0375 20.7 13.4375 21.9 12.8375 22.4Z" fill="white"/>
<path d="M18.8374 6.6999C19.4374 6.3999 20.0374 6.3999 20.5374 6.6999C20.8374 6.8999 21.0374 7.1999 21.2374 7.4999C21.3374 7.6999 21.2374 7.7999 21.1374 7.8999C20.6374 8.4999 19.7374 8.6999 19.0374 8.3999C18.8374 8.2999 18.6374 8.1999 18.5374 8.0999C18.4374 7.9999 18.3374 7.7999 18.1374 7.5999C17.9374 7.8999 17.6374 8.1999 17.4374 8.5999C17.5374 8.5999 17.6374 8.4999 17.7374 8.4999C18.6374 8.1999 19.4374 8.4999 19.8374 9.2999C19.9374 9.4999 19.9374 9.5999 19.7374 9.7999C18.9374 10.5999 17.6374 10.4999 17.0374 9.6999C17.0374 9.5999 16.9374 9.5999 16.8374 9.4999C16.5374 9.9999 16.1374 10.3999 15.8374 10.7999C15.7374 10.8999 15.7374 10.9999 15.6374 10.9999C15.6374 10.9999 15.5374 10.9999 15.4374 10.9999C15.4374 10.9999 15.4374 10.8999 15.4374 10.7999C15.4374 10.6999 15.5374 10.6999 15.5374 10.5999C15.8374 10.1999 16.1374 9.6999 16.5374 9.2999C16.0374 9.1999 15.6374 8.8999 15.4374 8.3999C15.1374 7.8999 15.1374 7.2999 15.4374 6.6999C15.6374 6.3999 15.7374 6.3999 15.9374 6.3999C16.6374 6.4999 17.3374 6.9999 17.3374 8.1999C17.5374 7.8999 17.7374 7.5999 17.9374 7.3999C17.2374 7.1999 16.8374 6.7999 16.6374 6.0999C16.5374 5.5999 16.6374 5.1999 16.8374 4.6999C16.9374 4.4999 17.0374 4.4999 17.2374 4.4999C18.0374 4.5999 18.6374 5.1999 18.7374 6.0999C18.7374 6.1999 18.7374 6.1999 18.7374 6.3999C18.9374 6.1999 19.0374 5.9999 18.9374 5.7999C18.7374 4.6999 19.7374 3.4999 20.8374 3.3999C21.0374 3.3999 21.0374 3.4999 21.1374 3.5999C21.5374 4.6999 20.7374 5.8999 19.6374 6.0999C19.2374 6.0999 19.0374 6.2999 18.8374 6.6999ZM19.2374 5.5999C19.3374 5.4999 19.4374 5.3999 19.4374 5.3999C19.7374 4.9999 20.0374 4.4999 20.3374 4.0999C20.3374 3.9999 20.5374 3.9999 20.5374 3.9999C20.5374 4.0999 20.5374 4.1999 20.5374 4.1999C20.5374 4.2999 20.4374 4.2999 20.4374 4.3999C20.1374 4.7999 19.8374 5.1999 19.5374 5.6999C19.5374 5.6999 19.4374 5.7999 19.4374 5.8999C20.3374 5.7999 21.0374 4.9999 20.9374 4.0999C20.9374 3.6999 20.8374 3.6999 20.4374 3.7999C19.7374 3.8999 19.0374 4.7999 19.2374 5.5999ZM18.5374 7.4999C18.9374 8.0999 19.6374 8.3999 20.3374 8.0999C20.5374 7.9999 20.8374 7.7999 21.0374 7.5999C20.8374 7.3999 20.7374 7.0999 20.5374 6.9999C20.0374 6.5999 19.1374 6.6999 18.6374 7.1999C19.2374 7.2999 19.9374 7.2999 20.5374 7.3999C20.6374 7.3999 20.8374 7.3999 20.8374 7.5999C20.8374 7.7999 20.6374 7.6999 20.5374 7.6999C19.8374 7.5999 19.2374 7.4999 18.5374 7.4999ZM16.9374 8.7999C17.4374 7.8999 16.8374 6.6999 15.9374 6.6999C15.9374 6.6999 15.8374 6.6999 15.7374 6.7999C15.2374 7.5999 15.7374 8.7999 16.6374 8.9999C16.6374 8.8999 16.5374 8.7999 16.5374 8.6999C16.3374 8.1999 16.0374 7.6999 15.8374 7.1999C15.8374 7.0999 15.6374 6.9999 15.8374 6.8999C16.0374 6.7999 16.0374 6.9999 16.0374 7.0999C16.1374 7.1999 16.1374 7.3999 16.2374 7.5999C16.5374 7.8999 16.7374 8.2999 16.9374 8.7999ZM18.0374 7.0999C17.7374 6.4999 17.5374 5.8999 17.2374 5.3999C17.1374 5.2999 17.0374 5.0999 17.2374 4.9999C17.4374 4.8999 17.4374 5.1999 17.5374 5.2999C17.8374 5.8999 18.0374 6.3999 18.3374 6.9999C18.8374 6.0999 18.3374 5.0999 17.4374 4.8999C17.2374 4.8999 17.1374 4.8999 17.1374 5.0999C16.6374 5.8999 17.1374 6.8999 18.0374 7.0999ZM17.2374 9.3999C17.7374 10.1999 18.9374 10.2999 19.5374 9.5999C19.6374 9.4999 19.6374 9.3999 19.6374 9.3999C19.3374 8.4999 18.0374 8.3999 17.3374 9.0999C17.4374 9.0999 17.5374 9.0999 17.5374 9.0999C18.0374 9.0999 18.6374 9.1999 19.1374 9.2999C19.2374 9.2999 19.4374 9.1999 19.4374 9.4999C19.4374 9.4999 19.2374 9.5999 19.0374 9.5999C18.5374 9.4999 17.8374 9.3999 17.2374 9.3999Z" fill="white" stroke="white" stroke-width="0.0962298" stroke-miterlimit="10"/>
</svg>
